<svg width="30" height="30" viewBox="0 0 30 30" fill="none" xmlns="http://www.w3.org/2000/svg">
<path d="M21.7058 2.98196C21.7058 4.62885 20.3335 5.96392 18.6406 5.96392C16.9477 5.96392 15.5754 4.62885 15.5754 2.98196C15.5754 1.33507 16.9477 0 18.6406 0C20.3335 0 21.7058 1.33507 21.7058 2.98196Z" fill="#0081C2"/>
<path d="M11.3679 5.24228C12.7379 4.12396 14.7804 4.2978 15.9299 5.63056C17.0795 6.96332 16.9008 8.95031 15.5308 10.0686L7.58872 16.5518C6.21875 17.6701 4.17627 17.4963 3.02673 16.1635C1.87718 14.8307 2.05587 12.8438 3.42585 11.7254L11.3679 5.24228Z" fill="#0081C2"/>
<path d="M3.55307 15.6877L6.40585 15.0471L9.26063 22.3265L7.0289 23.6689L3.55307 15.6877Z" fill="#0081C2"/>
<path d="M6.92066 22.4579C7.12495 21.7774 7.88451 21.4133 8.56362 21.6702C9.16669 21.8984 9.48876 22.5387 9.30395 23.142L7.46387 29.1482C7.21862 29.9487 6.22479 30.2616 5.54394 29.7526C5.14345 29.4533 4.97292 28.9454 5.11452 28.4738L6.92066 22.4579Z" fill="#0081C2"/>
<path d="M2.23115 14.1899L4.92182 13.9009L5.09427 19.8473L2.68208 19.8743L2.23115 14.1899Z" fill="#0081C2"/>
<path d="M2.60223 19.5068C2.6601 19.1881 2.83864 18.902 3.10263 18.7051C4.06811 17.9848 5.43863 18.7995 5.22044 19.9639L3.58948 28.6678C3.46123 29.3523 2.79072 29.8088 2.08579 29.6918C1.37232 29.5733 0.894211 28.9126 1.02012 28.2192L2.60223 19.5068Z" fill="#0081C2"/>
<path d="M14.47 8.06251C14.4 7.87301 14.384 7.66863 14.4236 7.47099C14.6459 6.36042 16.2291 6.23722 16.6301 7.29929L17.7646 10.3042C17.9865 10.8919 17.6745 11.5431 17.0691 11.7558C16.4653 11.968 15.7991 11.6631 15.5821 11.0753L14.47 8.06251Z" fill="#0081C2"/>
<path d="M16.6104 12.2033C16.0388 12.0009 15.7441 11.386 15.9521 10.8299C16.1602 10.2737 16.7923 9.98701 17.3639 10.1894L21.8928 11.793C22.4644 11.9954 22.7592 12.6103 22.5511 13.1665C22.3431 13.7226 21.711 14.0093 21.1393 13.8069L16.6104 12.2033Z" fill="#0081C2"/>
<path d="M15.936 21.0801C15.936 20.7895 16.1782 20.5539 16.477 20.5539H29.4591C29.7578 20.5539 30 20.7895 30 21.0801C30 21.3708 29.7578 21.6064 29.4591 21.6064H16.477C16.1782 21.6064 15.936 21.3708 15.936 21.0801Z" fill="#0081C2"/>
<path d="M17.3785 18.6244C17.3785 17.9463 17.9436 17.3965 18.6406 17.3965H24.0499C24.7469 17.3965 25.312 17.9463 25.312 18.6244C25.312 19.3025 24.7469 19.8523 24.0499 19.8523H18.6406C17.9436 19.8523 17.3785 19.3025 17.3785 18.6244Z" fill="#0081C2"/>
<path d="M18.3502 15.6425L19.3219 16.1687L19.5422 18.2426L17.3785 18.7998L18.3502 15.6425Z" fill="#0081C2"/>
<path d="M17.1953 15.3531C17.27 15.1382 17.5152 15.029 17.7312 15.1143L19.0923 15.6517C19.3681 15.7606 19.4392 16.1086 19.2272 16.3118C19.1082 16.4259 18.9302 16.4593 18.7762 16.3963L17.422 15.8426C17.2261 15.7625 17.1272 15.5488 17.1953 15.3531Z" fill="#0081C2"/>
<path d="M24.2136 18.6514C24.078 18.5776 23.9836 18.4484 23.9566 18.2995L23.6036 16.3518C23.5513 16.0632 23.7494 15.7881 24.046 15.7372C24.3485 15.6853 24.6353 15.8865 24.6802 16.182L24.9778 18.1384C25.0406 18.5517 24.5885 18.8552 24.2136 18.6514Z" fill="#0081C2"/>
<path d="M28.5575 18.0982C28.5575 18.8732 27.9117 19.5015 27.1151 19.5015C26.3184 19.5015 25.6726 18.8732 25.6726 18.0982C25.6726 17.3232 26.3184 16.6949 27.1151 16.6949C27.9117 16.6949 28.5575 17.3232 28.5575 18.0982Z" fill="#0081C2"/>
</svg>
