<svg width="30" height="30" viewBox="0 0 30 30" fill="none" xmlns="http://www.w3.org/2000/svg">
<g clip-path="url(#clip0)">
<path d="M12.4543 13.9617C12.3981 13.7595 12.1989 13.6286 11.9889 13.6656C7.66851 14.4274 4.75681 18.395 5.48547 22.5274C6.21414 26.6599 10.3072 29.3923 14.6277 28.6305C17.9787 28.0396 20.4823 25.5201 21.097 22.491C21.1934 22.0163 20.8365 21.5882 20.3498 21.5277L20.0892 21.4954C19.5581 21.4294 19.0863 21.8263 18.9605 22.34C18.4409 24.4624 16.648 26.2043 14.2737 26.623C11.1124 27.1804 8.11744 25.1811 7.58428 22.1573C7.05111 19.1336 9.18162 16.2305 12.3429 15.6731C12.6349 15.6216 12.837 15.3392 12.7588 15.0579L12.4543 13.9617Z" fill="#0081C2"/>
<path d="M12.9921 8.60595L12.5113 8.63263C11.6104 8.68263 10.975 9.53442 11.1878 10.4068L13.6912 20.6687C13.8434 21.2927 14.3938 21.7393 15.0387 21.7623L23.8578 22.076C24.7752 22.1087 25.4907 21.2909 25.332 20.391L25.2317 19.8222L16.7352 19.5199C16.0903 19.497 15.54 19.0503 15.3878 18.4263L12.9921 8.60595Z" fill="#0081C2"/>
<path d="M23.7989 21.4677C23.6258 21.113 23.7172 20.6861 24.0207 20.4317L24.52 20.0133C24.9646 19.6407 25.6437 19.8006 25.8721 20.3317L27.892 25.0287C28.0463 25.3876 27.9385 25.8053 27.6294 26.0464L27.3175 26.2896C26.8835 26.6282 26.2469 26.4825 26.0063 25.9895L23.7989 21.4677Z" fill="#0081C2"/>
<path d="M13.2709 12.288C13.173 11.7329 13.5507 11.2023 14.1145 11.1029L19.8997 10.0828C20.4636 9.9834 21 10.3528 21.0979 10.9079L21.1175 11.0196C21.2154 11.5747 20.8377 12.1053 20.2739 12.2047L14.4887 13.2248C13.9248 13.3242 13.3884 12.9548 13.2905 12.3997L13.2709 12.288Z" fill="#0081C2"/>
<path d="M14.388 4.03049C14.7142 5.88084 13.4551 7.6495 11.5757 7.98089C9.69625 8.31229 7.90816 7.08094 7.58189 5.23059C7.25562 3.38023 8.51473 1.61158 10.3942 1.28018C12.2736 0.948782 14.0617 2.18014 14.388 4.03049Z" fill="#0081C2"/>
</g>
<defs>
<clipPath id="clip0">
<rect width="30" height="30" fill="white"/>
</clipPath>
</defs>
</svg>
