<svg width="29" height="28" viewBox="0 0 116 109" fill="white" xmlns="http://www.w3.org/2000/svg">
<path d="M11.6213 43.8204C11.7586 43.486 12.2362 43.486 12.3735 43.8204L15.402 51.1971C15.4465 51.3057 15.5366 51.3896 15.6486 51.427L23.7182 54.1183C24.087 54.2414 24.087 54.7587 23.7182 54.8817L15.6486 57.5731C15.5366 57.6104 15.4465 57.6943 15.402 57.8029L12.3735 65.1796C12.2362 65.514 11.7586 65.5141 11.6213 65.1796L8.59285 57.8029C8.54828 57.6943 8.45822 57.6104 8.34619 57.5731L0.276633 54.8817C-0.0922107 54.7587 -0.092211 54.2414 0.276632 54.1183L8.34619 51.427C8.45822 51.3896 8.54828 51.3057 8.59285 51.1971L11.6213 43.8204Z"/>
<path fill-rule="evenodd" clip-rule="evenodd" d="M32.6596 0C30.5065 0 28.7611 1.80744 28.7611 4.03704V44.3786H87.2389V4.03704C87.2389 1.80744 85.4935 0 83.3404 0H32.6596ZM67.7516 7.7857C66.7424 7.7857 65.9242 8.59699 65.9242 9.59777V10.3048C65.9242 11.3055 66.7424 12.1168 67.7516 12.1168H78.6627C79.6719 12.1168 80.4901 11.3055 80.4901 10.3048V9.59777C80.4901 8.59699 79.672 7.7857 78.6627 7.7857H67.7516Z"/>
<path d="M45.5473 81.519C36.2295 76.364 29.6066 65.6034 28.8362 52.9428H87.1637C86.3934 65.6033 79.7706 76.3639 70.4529 81.519C69.9781 83.4341 69.7271 85.4295 69.7271 87.4796C69.7271 94.0234 72.2841 100.009 76.5152 104.612C77.8602 106.075 76.935 109 74.9842 109H41.0158C39.0651 109 38.1399 106.075 39.4849 104.612C43.716 100.009 46.273 94.0234 46.273 87.4796C46.273 85.4295 46.022 83.4342 45.5473 81.519Z"/>
<path d="M103.626 0.916167C103.764 0.581696 104.241 0.581697 104.379 0.916168L107.407 8.29285C107.452 8.40141 107.542 8.48533 107.654 8.5227L115.723 11.2141C116.092 11.3371 116.092 11.8544 115.723 11.9774L107.654 14.6688C107.542 14.7062 107.452 14.7901 107.407 14.8986L104.379 22.2753C104.241 22.6098 103.764 22.6098 103.626 22.2753L100.598 14.8986C100.553 14.7901 100.463 14.7062 100.351 14.6688L92.2818 11.9774C91.913 11.8544 91.913 11.3371 92.2818 11.2141L100.351 8.5227C100.463 8.48533 100.553 8.40141 100.598 8.29285L103.626 0.916167Z"/>
</svg>
