<svg width="45" height="63" viewBox="0 0 45 63" fill="none" xmlns="http://www.w3.org/2000/svg">
<path d="M45 26.1594C45 40.6068 34.9264 52.3188 22.5 52.3188C10.0736 52.3188 0 40.6068 0 26.1594C0 11.712 10.0736 0 22.5 0C34.9264 0 45 11.712 45 26.1594Z" fill="#0081C2"/>
<path d="M43.0328 36.7277C41.7292 33.4766 40.0831 30.1551 38.101 26.8603C33.5691 19.3271 28.0335 13.1843 22.5 9.07571C16.9665 13.1843 11.4309 19.3271 6.89901 26.8603C4.91687 30.1551 3.27076 33.4766 1.96721 36.7277C3.11713 39.3397 4.48403 41.984 6.06459 44.6113C10.8243 52.5232 16.6913 58.9014 22.5 63C28.3087 58.9014 34.1757 52.5232 38.9354 44.6113C40.516 41.984 41.8829 39.3397 43.0328 36.7277Z" fill="#0081C2"/>
<path fill-rule="evenodd" clip-rule="evenodd" d="M15.539 14.459C14.9475 14.459 14.468 14.9614 14.468 15.5811V26.7993C14.5073 26.7954 14.547 26.7934 14.5873 26.7934H30.413C30.4533 26.7934 30.493 26.7954 30.5323 26.7993V15.5811C30.5323 14.9614 30.0528 14.459 29.4613 14.459H15.539ZM13.3971 27.9235C13.3971 27.3113 13.865 26.8137 14.4465 26.8017C13.8653 26.8702 13.4123 27.3574 13.3975 27.9535C13.3972 27.9435 13.3971 27.9335 13.3971 27.9235ZM19.0793 37.1161C16.5187 35.6828 14.6989 32.6903 14.4885 29.1697C14.521 29.1724 14.554 29.1738 14.5873 29.1738H30.413C30.4463 29.1738 30.4793 29.1724 30.5118 29.1697C30.3014 32.6903 28.4816 35.6828 25.921 37.1161C25.7906 37.6484 25.7216 38.203 25.7216 38.7728C25.7216 40.5916 26.4241 42.2552 27.5864 43.5344C27.9559 43.9411 27.7017 44.7541 27.1658 44.7541H17.8345C17.2986 44.7541 17.0445 43.9411 17.4139 43.5344C18.5763 42.2552 19.2787 40.5916 19.2787 38.7728C19.2787 38.203 19.2097 37.6484 19.0793 37.1161ZM31.6032 27.9235C31.6032 27.9335 31.6031 27.9435 31.6028 27.9535C31.588 27.3574 31.135 26.8702 30.5538 26.8017C31.1353 26.8137 31.6032 27.3113 31.6032 27.9235ZM25.2789 16.6229C24.9465 16.6229 24.677 16.8924 24.677 17.2248C24.677 17.5572 24.9465 17.8267 25.2789 17.8267H28.0764C28.4089 17.8267 28.6783 17.5572 28.6783 17.2248C28.6783 16.8924 28.4089 16.6229 28.0764 16.6229H25.2789Z" fill="white"/>
</svg>
