<svg width="57" height="72" viewBox="0 0 57 72" fill="none" xmlns="http://www.w3.org/2000/svg">
<g filter="url(#filter0_d)">
<path d="M40 25.5919C40 37.5168 31.7173 47.1838 21.5 47.1838C11.2827 47.1838 3 37.5168 3 25.5919C3 13.667 11.2827 4 21.5 4C31.7173 4 40 13.667 40 25.5919Z" fill="white"/>
<path d="M38.3825 34.3149C37.3107 31.6314 35.9572 28.8899 34.3275 26.1704C30.6013 19.9525 26.0497 14.8823 21.5 11.4911C16.9503 14.8823 12.3987 19.9525 8.67252 26.1704C7.04276 28.8899 5.68929 31.6314 4.61749 34.3149C5.56298 36.4709 6.68687 38.6534 7.98644 40.822C11.9 47.3525 16.7239 52.617 21.5 56C26.2761 52.617 31.1 47.3525 35.0136 40.822C36.3131 38.6534 37.437 36.4709 38.3825 34.3149Z" fill="white"/>
<path fill-rule="evenodd" clip-rule="evenodd" d="M15.7765 15.9344C15.2902 15.9344 14.8959 16.3491 14.8959 16.8606V26.1205C14.9294 26.117 14.9634 26.1153 14.9977 26.1153H28.0025C28.0369 26.1153 28.0708 26.117 28.1043 26.1205V16.8606C28.1043 16.3491 27.7101 15.9344 27.2237 15.9344H15.7765ZM14.0154 27.048C14.0154 26.5413 14.4023 26.1296 14.8823 26.122C14.4022 26.1782 14.0279 26.5805 14.0157 27.0728C14.0155 27.0645 14.0154 27.0563 14.0154 27.048ZM18.6874 34.6356C16.582 33.4525 15.0857 30.9823 14.9127 28.0763C14.9407 28.0787 14.9691 28.08 14.9977 28.08H28.0025C28.0311 28.08 28.0595 28.0787 28.0875 28.0763C27.9145 30.9823 26.4183 33.4524 24.3128 34.6355C24.2056 35.0749 24.1489 35.5326 24.1489 36.003C24.1489 37.5042 24.7264 38.8773 25.6821 39.9332C25.9859 40.2688 25.7769 40.9399 25.3363 40.9399H17.6639C17.2233 40.9399 17.0143 40.2688 17.3181 39.9332C18.2738 38.8773 18.8513 37.5042 18.8513 36.003C18.8513 35.5327 18.7947 35.0749 18.6874 34.6356ZM28.9848 27.048C28.9848 27.0563 28.9847 27.0645 28.9845 27.0728C28.9723 26.5805 28.598 26.1782 28.1179 26.122C28.598 26.1296 28.9848 26.5413 28.9848 27.048ZM23.7868 17.7206C23.5124 17.7206 23.29 17.943 23.29 18.2174C23.29 18.4917 23.5124 18.7142 23.7868 18.7142H26.0832C26.3575 18.7142 26.58 18.4917 26.58 18.2174C26.58 17.943 26.3575 17.7206 26.0832 17.7206H23.7868Z" fill="#0081C2"/>
</g>
<defs>
<filter id="filter0_d" x="0" y="0" width="57" height="72" filterUnits="userSpaceOnUse" color-interpolation-filters="sRGB">
<feFlood flood-opacity="0" result="BackgroundImageFix"/>
<feColorMatrix in="SourceAlpha" type="matrix" values="0 0 0 0 0 0 0 0 0 0 0 0 0 0 0 0 0 0 127 0"/>
<feOffset dx="7" dy="6"/>
<feGaussianBlur stdDeviation="5"/>
<feColorMatrix type="matrix" values="0 0 0 0 0 0 0 0 0 0 0 0 0 0 0 0 0 0 0.25 0"/>
<feBlend mode="normal" in2="BackgroundImageFix" result="effect1_dropShadow"/>
<feBlend mode="normal" in="SourceGraphic" in2="effect1_dropShadow" result="shape"/>
</filter>
</defs>
</svg>
