<svg width="30" height="30" viewBox="0 0 30 30" fill="none" xmlns="http://www.w3.org/2000/svg">
<path d="M26 12.4569C26 19.3366 21.0751 24.9137 15 24.9137C8.92487 24.9137 4 19.3366 4 12.4569C4 5.57713 8.92487 0 15 0C21.0751 0 26 5.57713 26 12.4569Z" fill="#0081C2"/>
<path d="M25.0382 17.4894C24.401 15.9412 23.5962 14.3596 22.6272 12.7906C20.4116 9.20336 17.7052 6.27825 15 4.32177C12.2948 6.27825 9.58844 9.20336 7.37285 12.7906C6.4038 14.3596 5.59904 15.9412 4.96175 17.4894C5.52393 18.7332 6.19219 19.9924 6.96491 21.2435C9.29189 25.0111 12.1602 28.0483 15 30C17.8398 28.0483 20.7081 25.0111 23.0351 21.2435C23.8078 19.9924 24.4761 18.7332 25.0382 17.4894Z" fill="#0081C2"/>
<path fill-rule="evenodd" clip-rule="evenodd" d="M11.5969 6.88525C11.3077 6.88525 11.0733 7.12446 11.0733 7.41955V12.7604C11.0876 12.7593 11.102 12.7588 11.1165 12.7588H18.8838C18.8983 12.7588 18.9127 12.7593 18.9269 12.7604V7.41955C18.9269 7.12446 18.6925 6.88525 18.4034 6.88525H11.5969ZM10.5497 13.2969C10.5497 13.0121 10.7681 12.7793 11.0434 12.7635C10.7696 12.7987 10.557 13.0294 10.5499 13.3111L10.5497 13.2969ZM13.3277 17.6743C12.0761 16.992 11.1865 15.5674 11.0834 13.8913C11.0943 13.892 11.1054 13.8923 11.1165 13.8923H18.8838C18.8949 13.8923 18.9059 13.892 18.9169 13.8913C18.8137 15.5674 17.9242 16.9919 16.6726 17.6743C16.6088 17.9278 16.5751 18.1919 16.5751 18.4632C16.5751 19.3293 16.9185 20.1215 17.4867 20.7307C17.6674 20.9243 17.5431 21.3115 17.2811 21.3115H12.7191C12.4572 21.3115 12.3329 20.9243 12.5135 20.7307C13.0818 20.1215 13.4252 19.3293 13.4252 18.4632C13.4252 18.1919 13.3915 17.9278 13.3277 17.6743ZM19.4505 13.2969L19.4503 13.3111C19.4433 13.0294 19.2307 12.7987 18.9569 12.7635C19.2321 12.7793 19.4505 13.0121 19.4505 13.2969ZM16.351 7.91569C16.1927 7.91569 16.0644 8.04401 16.0644 8.2023C16.0644 8.36059 16.1927 8.48891 16.351 8.48891H17.734C17.8923 8.48891 18.0206 8.36059 18.0206 8.2023C18.0206 8.04401 17.8923 7.91569 17.734 7.91569H16.351Z" fill="white"/>
</svg>
